<svg width="980" height="220" viewBox="0 0 980 220" fill="none" xmlns="http://www.w3.org/2000/svg">
  <rect width="980" height="220" rx="32" fill="#08111D"/>
  <g clip-path="url(#clipCircle)">
    <circle cx="126" cy="110" r="92" fill="#173152" stroke="#3E6FA6" stroke-width="4"/>
    <g opacity="0.75" stroke="url(#network)" stroke-width="2">
      <path d="M64 88L92 66L128 78L160 60L190 86" />
      <path d="M72 126L102 104L136 116L170 96L196 122" />
      <path d="M82 158L114 136L146 150L178 132" />
      <path d="M92 66L102 104L114 136" />
      <path d="M128 78L136 116L146 150" />
      <path d="M160 60L170 96L178 132" />
    </g>
    <g>
      <circle cx="64" cy="88" r="4.5" fill="#8AF1FF"/>
      <circle cx="92" cy="66" r="4.5" fill="#A7CFFF"/>
      <circle cx="128" cy="78" r="4.5" fill="#F7FBFF"/>
      <circle cx="160" cy="60" r="4.5" fill="#8FC1FF"/>
      <circle cx="190" cy="86" r="4.5" fill="#8AF1FF"/>
      <circle cx="72" cy="126" r="4.5" fill="#8FC1FF"/>
      <circle cx="102" cy="104" r="4.5" fill="#F7FBFF"/>
      <circle cx="136" cy="116" r="4.5" fill="#8AF1FF"/>
      <circle cx="170" cy="96" r="4.5" fill="#A7CFFF"/>
      <circle cx="196" cy="122" r="4.5" fill="#8FC1FF"/>
      <circle cx="82" cy="158" r="4.5" fill="#8AF1FF"/>
      <circle cx="114" cy="136" r="4.5" fill="#A7CFFF"/>
      <circle cx="146" cy="150" r="4.5" fill="#F7FBFF"/>
      <circle cx="178" cy="132" r="4.5" fill="#8FC1FF"/>
    </g>
  </g>
  <text x="26" y="168" fill="#8FC1FF" font-size="172" font-weight="700" font-family="Avenir Next, Segoe UI, Arial, sans-serif" letter-spacing="-16">
    S
  </text>
  <text x="126" y="168" fill="#F7FBFF" font-size="172" font-weight="700" font-family="Avenir Next, Segoe UI, Arial, sans-serif" letter-spacing="-16">
    3
  </text>
  <text x="286" y="116" fill="#F7FBFF" font-size="56" font-weight="700" font-family="Avenir Next, Segoe UI, Arial, sans-serif">
    Technology
  </text>
  <text x="286" y="170" fill="#9EC5FF" font-size="48" font-weight="500" font-family="Avenir Next, Segoe UI, Arial, sans-serif">
    Solutions
  </text>
  <defs>
    <linearGradient id="network" x1="64" y1="66" x2="196" y2="150" gradientUnits="userSpaceOnUse">
      <stop stop-color="#67DDF8"/>
      <stop offset="1" stop-color="#8FAEFF"/>
    </linearGradient>
    <clipPath id="clipCircle">
      <circle cx="126" cy="110" r="92"/>
    </clipPath>
  </defs>
</svg>
